<?xml version="1.0" standalone="no"?>
<!DOCTYPE svg PUBLIC "-//W3C//DTD SVG 20010904//EN"
 "http://www.w3.org/TR/2001/REC-SVG-20010904/DTD/svg10.dtd">
<svg version="1.0" xmlns="http://www.w3.org/2000/svg"
 width="512.000000pt" height="512.000000pt" viewBox="0 0 512.000000 512.000000"
 preserveAspectRatio="xMidYMid meet">
<metadata>
Created by potrace 1.11, written by Peter Selinger 2001-2013
</metadata>
<g transform="translate(0.000000,512.000000) scale(0.100000,-0.100000)"
fill="#000000" stroke="none">
<path d="M800 4901 c-63 -20 -106 -69 -140 -161 -19 -53 -36 -135 -32 -157 4
-20 -29 -29 -103 -26 -105 3 -133 -3 -149 -35 -11 -23 -13 -367 -12 -2149 1
-2023 2 -2123 19 -2140 17 -17 98 -18 1697 -18 1599 0 1680 1 1697 18 17 17
18 116 18 2151 0 2092 0 2133 -19 2152 -18 18 -37 19 -268 20 -137 0 -253 5
-257 10 -5 5 -12 30 -15 55 -8 59 -39 151 -67 195 -68 111 -195 117 -266 13
-35 -52 -69 -145 -79 -217 -7 -56 -5 -55 -83 -54 -18 0 -37 4 -41 9 -4 4 -12
40 -19 79 -22 129 -85 229 -160 254 -35 11 -46 11 -84 -4 -24 -9 -54 -28 -67
-43 -35 -40 -70 -125 -88 -213 -18 -85 -15 -82 -82 -82 -52 0 -56 2 -57 21 -4
56 -26 140 -49 192 -26 56 -90 128 -117 130 -6 0 -23 2 -37 4 -43 5 -106 -32
-140 -83 -33 -50 -66 -144 -76 -219 l-6 -48 -54 1 c-30 0 -57 4 -61 8 -4 4
-13 38 -19 76 -21 123 -81 226 -149 255 -39 17 -102 9 -135 -17 -57 -45 -111
-162 -124 -272 -2 -21 -9 -41 -14 -45 -8 -5 -87 -6 -112 -2 -3 1 -6 20 -8 42
-9 129 -93 277 -170 299 -41 11 -38 11 -72 1z m89 -251 c12 -41 17 -78 12 -83
-4 -4 -30 -8 -57 -9 -90 -1 -87 -3 -79 44 9 54 31 115 52 147 l16 24 18 -24
c10 -13 27 -58 38 -99z m539 34 c11 -32 23 -74 26 -91 6 -36 9 -35 -79 -35
-25 0 -50 1 -55 1 -21 2 12 137 46 189 20 30 35 15 62 -64z m537 34 c29 -65
47 -158 31 -159 -35 -3 -129 0 -133 5 -18 18 50 206 73 206 3 0 16 -24 29 -52z
m570 -53 c7 -27 15 -63 17 -79 l3 -29 -63 -1 c-35 -1 -69 2 -75 6 -20 12 20
151 56 196 14 17 43 -26 62 -93z m555 -18 c12 -57 13 -87 3 -88 -5 0 -35 -1
-68 -2 -60 -1 -60 -1 -61 29 -2 38 20 110 47 153 l21 35 24 -39 c13 -22 28
-61 34 -88z"/>
<path d="M4179 4599 l-24 -20 1 -1917 c0 -1843 1 -1919 18 -1972 24 -68 101
-149 167 -174 l45 -17 1 -122 c0 -117 1 -121 26 -143 26 -23 34 -24 73 -11 33
11 42 51 40 167 l-1 105 55 26 c69 33 115 79 149 149 l26 55 0 1928 0 1929
-24 19 c-21 18 -42 19 -276 19 -241 0 -253 -1 -276 -21z"/>
</g>
</svg>
